<svg width="56" height="56" viewBox="0 0 56 56" fill="none" xmlns="http://www.w3.org/2000/svg">
<path fill-rule="evenodd" clip-rule="evenodd" d="M28 1.80645C13.5337 1.80645 1.80645 13.5337 1.80645 28C1.80645 42.4663 13.5337 54.1936 28 54.1936C42.4663 54.1936 54.1936 42.4663 54.1936 28C54.1936 13.5337 42.4663 1.80645 28 1.80645ZM0 28C0 12.536 12.536 0 28 0C43.464 0 56 12.536 56 28C56 43.464 43.464 56 28 56C12.536 56 0 43.464 0 28Z" fill="#1C1C1C"/>
<path fill-rule="evenodd" clip-rule="evenodd" d="M27.5786 15.3477C25.8941 15.3835 23.4696 16.0419 21.4572 17.889C19.4213 19.7575 17.8769 22.7783 17.8769 27.3982C17.8769 30.3658 17.5392 31.8813 17.0543 32.8932C16.6984 33.6358 16.2743 34.1169 15.7179 34.748C15.4844 35.0129 15.2276 35.3042 14.9428 35.6523L14.6022 36.0686L14.8717 36.5341C15.1328 36.9853 15.5964 37.4257 16.206 37.8287C16.8267 38.2391 17.6435 38.6404 18.6684 38.9934C20.719 39.6996 23.6421 40.2263 27.5951 40.2263C31.5482 40.2263 34.4713 39.6996 36.5218 38.9934C37.5468 38.6404 38.3635 38.2391 38.9843 37.8287C39.5938 37.4257 40.0574 36.9853 40.3186 36.5341L40.588 36.0686L40.2475 35.6523C39.9626 35.3042 39.7058 35.0129 39.4724 34.7481C38.9159 34.1169 38.4918 33.6358 38.136 32.8932C37.6511 31.8813 37.3134 30.3658 37.3134 27.3982C37.3134 22.7783 35.769 19.7575 33.7331 17.889C31.7207 16.0419 29.2962 15.3835 27.6116 15.3477L27.5951 15.3475L27.5786 15.3477ZM27.5951 16.9026C26.2346 16.9357 24.1984 17.4836 22.5086 19.0345C20.8353 20.5703 19.4318 23.1537 19.4318 27.3982C19.4318 30.4559 19.0893 32.2446 18.4565 33.5651C18.001 34.5157 17.3797 35.2204 16.7679 35.9142C16.6989 35.9924 16.6299 36.0707 16.5614 36.149C16.6898 36.2646 16.8548 36.3937 17.0636 36.5317C17.5544 36.8562 18.248 37.204 19.1748 37.5232C21.0278 38.1614 23.7736 38.6714 27.5951 38.6714C31.4167 38.6714 34.1625 38.1614 36.0155 37.5232C36.9423 37.204 37.6359 36.8562 38.1266 36.5317C38.3354 36.3937 38.5004 36.2646 38.6288 36.149C38.5603 36.0706 38.4914 35.9924 38.4223 35.9142C37.8106 35.2204 37.1892 34.5157 36.7337 33.5651C36.1009 32.2446 35.7584 30.4559 35.7584 27.3982C35.7584 23.1537 34.3549 20.5703 32.6817 19.0345C30.9919 17.4836 28.9556 16.9357 27.5951 16.9026Z" fill="#1C1C1C"/>
<path fill-rule="evenodd" clip-rule="evenodd" d="M39.4431 24.456L39.2679 23.4492L40.7999 23.1827L40.975 24.1897C41.3889 26.5696 41.3889 29.0031 40.975 31.3831L40.7999 32.39L39.2679 32.1235L39.4431 31.1166C39.8263 28.913 39.8263 26.6597 39.4431 24.456Z" fill="#1C1C1C"/>
<path fill-rule="evenodd" clip-rule="evenodd" d="M42.4605 23.2294L42.3751 22.6529L43.9133 22.425L43.9986 23.0015C44.4687 26.1744 44.4687 29.3992 43.9986 32.5721L43.9133 33.1486L42.3751 32.9208L42.4605 32.3443C42.9082 29.3224 42.9082 26.2512 42.4605 23.2294Z" fill="#1C1C1C"/>
<path fill-rule="evenodd" clip-rule="evenodd" d="M15.7459 31.1169L15.921 32.1238L14.3891 32.3902L14.214 31.3833C13.8001 29.0033 13.8001 26.5698 14.214 24.1899L14.3891 23.183L15.921 23.4494L15.7459 24.4563C15.3627 26.6599 15.3627 28.9132 15.7459 31.1169Z" fill="#1C1C1C"/>
<path fill-rule="evenodd" clip-rule="evenodd" d="M12.7294 32.3439L12.8148 32.9204L11.2767 33.1483L11.1913 32.5718C10.7212 29.3989 10.7212 26.1741 11.1913 23.0012L11.2767 22.4247L12.8148 22.6525L12.7294 23.229C12.2817 26.2509 12.2817 29.3221 12.7294 32.3439Z" fill="#1C1C1C"/>
<path fill-rule="evenodd" clip-rule="evenodd" d="M31.4729 38.6001C30.9873 39.0025 30.4285 39.3339 29.8166 39.5762C29.516 40.5168 28.6348 41.1978 27.5945 41.1978C26.6132 41.1978 25.7734 40.5918 25.429 39.7336C24.8016 39.5375 24.2213 39.2504 23.7073 38.8898C23.7203 41.0255 25.4557 42.7528 27.5945 42.7528C29.7414 42.7528 31.4818 41.0124 31.4818 38.8655C31.4818 38.7763 31.4788 38.6878 31.4729 38.6001Z" fill="#1C1C1C"/>
<path fill-rule="evenodd" clip-rule="evenodd" d="M29.8776 16.4099C29.91 16.2551 29.927 16.0947 29.927 15.9303C29.927 14.6422 28.8828 13.5979 27.5946 13.5979C26.3065 13.5979 25.2622 14.6422 25.2622 15.9303C25.2622 16.0471 25.2708 16.162 25.2874 16.2742C24.7707 16.449 24.2876 16.6861 23.8494 16.9753C23.7568 16.6428 23.7073 16.2923 23.7073 15.9303C23.7073 13.7834 25.4477 12.043 27.5946 12.043C29.7415 12.043 31.4819 13.7834 31.4819 15.9303C31.4819 16.3751 31.4072 16.8024 31.2696 17.2004C30.8503 16.8829 30.3825 16.6159 29.8776 16.4099Z" fill="#1C1C1C"/>
</svg>
