<svg width="56" height="56" viewBox="0 0 56 56" fill="none" xmlns="http://www.w3.org/2000/svg">
<g clip-path="url(#clip0_488_838)">
<path fill-rule="evenodd" clip-rule="evenodd" d="M28 1.80645C13.5337 1.80645 1.80645 13.5337 1.80645 28C1.80645 42.4663 13.5337 54.1936 28 54.1936C42.4663 54.1936 54.1936 42.4663 54.1936 28C54.1936 13.5337 42.4663 1.80645 28 1.80645ZM0 28C0 12.536 12.536 0 28 0C43.464 0 56 12.536 56 28C56 43.464 43.464 56 28 56C12.536 56 0 43.464 0 28Z" fill="#4B4B4B"/>
<path d="M39.7916 23.3883L39.9473 22.9131L39.4722 22.7574L16.7051 15.2937L16.23 15.1379L16.0742 15.613L12.2832 27.1773L12.1274 27.6524L12.6025 27.8081L35.3696 35.2718L35.8447 35.4276L36.0005 34.9524L39.7916 23.3883ZM11.4697 27.9853L15.8971 14.4802L40.605 22.5802L36.1776 36.0852L11.4697 27.9853Z" fill="#1C1C1C" stroke="#4B4B4B"/>
<path d="M31.701 33.4172L35.6544 21.3577L36.1497 21.5201L32.1963 33.5795L31.701 33.4172Z" fill="#1C1C1C" stroke="#4B4B4B"/>
<path d="M39.4675 27.1205L39.1138 27.1285L39.0036 27.4646L37.6602 31.5626L37.55 31.8988L37.8303 32.1146L40.7064 34.3288L41.2664 34.7599L41.4865 34.0883L43.5826 27.6944L43.8028 27.0229L43.0962 27.0388L39.4675 27.1205ZM36.9398 32.0869L38.7334 26.6157L44.5275 26.4853L41.5322 35.6223L36.9398 32.0869Z" fill="#1C1C1C" stroke="#4B4B4B"/>
<path d="M15.1515 24.9158L16.597 25.3897L16.1231 26.8352L14.6776 26.3613L15.1515 24.9158Z" fill="#EFEDED"/>
<path d="M23.5082 37.8086V32.604H24.0294V37.8086C24.0294 40.2629 22.0398 42.2525 19.5854 42.2525H12.099V37.5479H18.0642C18.9704 37.5479 19.7051 36.8133 19.7051 35.907V31.0828H20.2263V35.907C20.2263 37.1012 19.2583 38.0692 18.0642 38.0692H13.1202H12.6202V38.5692V41.2313V41.7313H13.1202H19.5854C21.7519 41.7313 23.5082 39.975 23.5082 37.8086Z" fill="#1C1C1C" stroke="#4B4B4B"/>
</g>
<defs>
<clipPath id="clip0_488_838">
<rect width="56" height="56" fill="white"/>
</clipPath>
</defs>
</svg>
