<svg width="56" height="56" viewBox="0 0 56 56" fill="none" xmlns="http://www.w3.org/2000/svg">
<g clip-path="url(#clip0_359_1082)">
<path fill-rule="evenodd" clip-rule="evenodd" d="M28 1.80645C13.5337 1.80645 1.80645 13.5337 1.80645 28C1.80645 42.4663 13.5337 54.1936 28 54.1936C42.4663 54.1936 54.1936 42.4663 54.1936 28C54.1936 13.5337 42.4663 1.80645 28 1.80645ZM0 28C0 12.536 12.536 0 28 0C43.464 0 56 12.536 56 28C56 43.464 43.464 56 28 56C12.536 56 0 43.464 0 28Z" fill="#1C1C1C"/>
<path fill-rule="evenodd" clip-rule="evenodd" d="M40.5334 21.982H15.4191V42.3874H40.5334V21.982ZM13.8495 20.4124V43.957H42.103V20.4124H13.8495Z" fill="#1C1C1C"/>
<path fill-rule="evenodd" clip-rule="evenodd" d="M29.1538 10.6019H26.7994C23.3318 10.6019 20.5208 13.4129 20.5208 16.8805V20.4121H35.4324V16.8805C35.4324 13.4129 32.6214 10.6019 29.1538 10.6019ZM26.7994 9.03223C22.4649 9.03223 18.9512 12.546 18.9512 16.8805V21.9818H37.0021V16.8805C37.0021 12.546 33.4883 9.03223 29.1538 9.03223H26.7994Z" fill="#1C1C1C"/>
<path fill-rule="evenodd" clip-rule="evenodd" d="M31.9003 20.4125V18.058C31.9003 15.8907 30.1434 14.1338 27.9762 14.1338C25.8089 14.1338 24.052 15.8907 24.052 18.058V20.4125H31.9003ZM27.9762 12.5642C24.9421 12.5642 22.4824 15.0239 22.4824 18.058V21.9821H33.4699V18.058C33.4699 15.0239 31.0103 12.5642 27.9762 12.5642Z" fill="#1C1C1C"/>
<path fill-rule="evenodd" clip-rule="evenodd" d="M28.5733 32.3727L29.2921 31.7575C29.7206 31.3907 29.9881 30.851 29.9881 30.2472C29.9881 29.15 29.0987 28.2605 28.0016 28.2605C26.9044 28.2605 26.0149 29.15 26.0149 30.2472C26.0149 30.8106 26.2475 31.3171 26.6261 31.6805L27.2424 32.2722L26.3479 36.8936H29.5942L28.5733 32.3727ZM31.5577 38.4633H24.4453L25.5389 32.8128C24.8649 32.1656 24.4453 31.2554 24.4453 30.2472C24.4453 28.2831 26.0375 26.6909 28.0016 26.6909C29.9656 26.6909 31.5577 28.2831 31.5577 30.2472C31.5577 31.3288 31.0748 32.2977 30.3128 32.95L31.5577 38.4633Z" fill="#1C1C1C"/>
</g>
<defs>
<clipPath id="clip0_359_1082">
<rect width="56" height="56" fill="white"/>
</clipPath>
</defs>
</svg>
