<svg width="56" height="56" viewBox="0 0 56 56" fill="none" xmlns="http://www.w3.org/2000/svg">
<path fill-rule="evenodd" clip-rule="evenodd" d="M28 1.80645C13.5337 1.80645 1.80645 13.5337 1.80645 28C1.80645 42.4663 13.5337 54.1936 28 54.1936C42.4663 54.1936 54.1936 42.4663 54.1936 28C54.1936 13.5337 42.4663 1.80645 28 1.80645ZM0 28C0 12.536 12.536 0 28 0C43.464 0 56 12.536 56 28C56 43.464 43.464 56 28 56C12.536 56 0 43.464 0 28Z" fill="#4B4B4B"/>
<path fill-rule="evenodd" clip-rule="evenodd" d="M40.4533 14.5466H14.5466V40.4533H40.4533V14.5466ZM13 13V42H42V13H13Z" fill="#4B4B4B"/>
<path fill-rule="evenodd" clip-rule="evenodd" d="M19.5 41.6666H16.5V43.3334H19.5V41.6666ZM15 40V45H21V40H15Z" fill="#4B4B4B"/>
<path fill-rule="evenodd" clip-rule="evenodd" d="M38.5 41.6666H35.5V43.3334H38.5V41.6666ZM34 40V45H40V40H34Z" fill="#4B4B4B"/>
<path fill-rule="evenodd" clip-rule="evenodd" d="M27.5 34.5218C31.378 34.5218 34.5218 31.378 34.5218 27.5C34.5218 23.622 31.378 20.4782 27.5 20.4782C23.622 20.4782 20.4782 23.622 20.4782 27.5C20.4782 31.378 23.622 34.5218 27.5 34.5218ZM27.5 36C32.1944 36 36 32.1944 36 27.5C36 22.8056 32.1944 19 27.5 19C22.8056 19 19 22.8056 19 27.5C19 32.1944 22.8056 36 27.5 36Z" fill="#4B4B4B"/>
<path fill-rule="evenodd" clip-rule="evenodd" d="M27 29.6C28.3255 29.6 29.4 28.6598 29.4 27.5C29.4 26.3402 28.3255 25.4 27 25.4C25.6745 25.4 24.6 26.3402 24.6 27.5C24.6 28.6598 25.6745 29.6 27 29.6ZM27 31C29.2091 31 31 29.433 31 27.5C31 25.567 29.2091 24 27 24C24.7909 24 23 25.567 23 27.5C23 29.433 24.7909 31 27 31Z" fill="#4B4B4B"/>
<path d="M28 33H26V36H28V33Z" fill="#4B4B4B"/>
<path d="M28 19H26V22H28V19Z" fill="#4B4B4B"/>
<path d="M22 28V27H19V28H22Z" fill="#4B4B4B"/>
<path d="M36 28V27H33V28H36Z" fill="#4B4B4B"/>
<path d="M23.7389 32.1178L22.6719 31.0508L20.8046 32.9181L21.8716 33.9851L23.7389 32.1178Z" fill="#4B4B4B"/>
<path d="M33.608 22.2472L32.541 21.1802L30.6737 23.0475L31.7407 24.1145L33.608 22.2472Z" fill="#4B4B4B"/>
<path d="M22.6713 24.1149L23.7383 23.0479L21.871 21.1805L20.8039 22.2476L22.6713 24.1149Z" fill="#4B4B4B"/>
<path d="M32.5404 33.9855L33.6074 32.9185L31.7401 31.0512L30.6731 32.1182L32.5404 33.9855Z" fill="#4B4B4B"/>
</svg>
