<svg width="56" height="56" viewBox="0 0 56 56" fill="none" xmlns="http://www.w3.org/2000/svg">
<path fill-rule="evenodd" clip-rule="evenodd" d="M28 1.80645C13.5337 1.80645 1.80645 13.5337 1.80645 28C1.80645 42.4663 13.5337 54.1936 28 54.1936C42.4663 54.1936 54.1936 42.4663 54.1936 28C54.1936 13.5337 42.4663 1.80645 28 1.80645ZM0 28C0 12.536 12.536 0 28 0C43.464 0 56 12.536 56 28C56 43.464 43.464 56 28 56C12.536 56 0 43.464 0 28Z" fill="#1C1C1C"/>
<path fill-rule="evenodd" clip-rule="evenodd" d="M41.9271 31.8452H26.5636C26.1171 31.8452 25.7551 32.2072 25.7551 32.6538C25.7551 33.1004 26.1171 33.4624 26.5636 33.4624H41.9271C42.3736 33.4624 42.7357 33.1004 42.7357 32.6538C42.7357 32.2072 42.3736 31.8452 41.9271 31.8452ZM26.5636 30.228C25.2239 30.228 24.1378 31.3141 24.1378 32.6538C24.1378 33.9936 25.2239 35.0796 26.5636 35.0796H41.9271C43.2668 35.0796 44.3529 33.9936 44.3529 32.6538C44.3529 31.3141 43.2668 30.228 41.9271 30.228H26.5636Z" fill="#1C1C1C"/>
<path fill-rule="evenodd" clip-rule="evenodd" d="M18.4774 14.8645H34.2452V30.228H35.8624V13.2473H16.8602V41.5484H35.8624V35.0796H34.2452V39.9312H18.4774V14.8645Z" fill="#1C1C1C"/>
<path fill-rule="evenodd" clip-rule="evenodd" d="M28.8716 35.0797C28.2053 35.8241 27.2371 36.2926 26.1594 36.2926C24.1498 36.2926 22.5208 34.6634 22.5208 32.6539C22.5208 30.6443 24.1498 29.0151 26.1594 29.0151C27.2372 29.0151 28.2054 29.4837 28.8717 30.2281H30.8233C29.9468 28.5463 28.1872 27.3979 26.1594 27.3979C23.2567 27.3979 20.9036 29.7511 20.9036 32.6539C20.9036 35.5566 23.2567 37.9098 26.1594 37.9098C28.1872 37.9098 29.9467 36.7615 30.8233 35.0797H28.8716Z" fill="#1C1C1C"/>
<path fill-rule="evenodd" clip-rule="evenodd" d="M32.6278 16.4819H20.0945V25.3765H32.6278V16.4819ZM21.7117 18.0991H23.7332V20.1206H21.7117V18.0991ZM27.3719 20.1206H25.3504V18.0991H27.3719V20.1206ZM28.9891 20.1206H31.0106V18.0991H28.9891V20.1206ZM31.0106 21.7379H28.9891V23.7593H31.0106V21.7379ZM27.3719 23.7593V21.7379H25.3504V23.7593H27.3719ZM23.7332 21.7379V23.7593H21.7117V21.7379H23.7332Z" fill="#1C1C1C"/>
</svg>
