<svg width="20" height="17" viewBox="0 0 20 17" fill="none" xmlns="http://www.w3.org/2000/svg">
<path d="M5.58008 9.73592L7.67329 15.5295C7.67329 15.5295 7.93462 16.0704 8.21424 16.0704C8.49386 16.0704 12.662 11.7351 12.662 11.7351L17.2953 2.78467L5.65586 8.24114L5.58008 9.73592Z" fill="#EFEFEF"/>
<path d="M8.35665 11.2261L7.95421 15.4961C7.95421 15.4961 7.78697 16.8054 9.09359 15.4961C10.4028 14.1869 11.6546 13.1782 11.6546 13.1782L8.35665 11.2261Z" fill="#E8E8E8"/>
<path d="M5.62251 9.94118L1.31849 8.53786C1.31849 8.53786 0.803675 8.3288 0.970923 7.8558C1.0049 7.75911 1.07284 7.67549 1.27929 7.53176C2.23312 6.86799 18.9344 0.862739 18.9344 0.862739C18.9344 0.862739 19.4048 0.70333 19.6844 0.810473C19.8125 0.857512 19.8935 0.91239 19.9614 1.11361C19.9876 1.18678 20.0006 1.34096 19.998 1.49253C19.9954 1.60229 19.9823 1.70682 19.9719 1.86623C19.87 3.50735 16.8255 15.7557 16.8255 15.7557C16.8255 15.7557 16.6426 16.4717 15.9919 16.4978C15.7541 16.5057 15.464 16.4586 15.1191 16.1607C13.8386 15.0579 9.41173 12.084 8.43437 11.4307C8.37949 11.3941 8.36382 11.3471 8.35336 11.3001C8.3403 11.2321 8.41347 11.1459 8.41347 11.1459C8.41347 11.1459 16.1199 4.29655 16.3238 3.57791C16.3395 3.52303 16.2794 3.49428 16.1983 3.5178C15.6861 3.70596 6.81416 9.30877 5.83419 9.92811C5.78192 9.9647 5.62251 9.94118 5.62251 9.94118Z" fill="black"/>
</svg>
