<svg width="32" height="32" viewBox="0 0 32 32" fill="none" xmlns="http://www.w3.org/2000/svg">
<rect width="32" height="32" rx="8" fill="url(#paint0_linear_1768_25292)"/>
<path d="M10.5781 17.7325L12.6713 23.5261C12.6713 23.5261 12.9327 24.067 13.2123 24.067C13.4919 24.067 17.66 19.7316 17.66 19.7316L22.2933 10.7812L10.6539 16.2377L10.5781 17.7325Z" fill="#C8DAEA"/>
<path d="M13.3547 19.2266L12.9523 23.4966C12.9523 23.4966 12.785 24.8059 14.0916 23.4966C15.4009 22.1874 16.6526 21.1787 16.6526 21.1787L13.3547 19.2266Z" fill="#A9C6D8"/>
<path d="M10.6225 17.9412L6.31849 16.5379C6.31849 16.5379 5.80368 16.3288 5.97092 15.8558C6.0049 15.7591 6.07284 15.6755 6.27929 15.5318C7.23312 14.868 23.9344 8.86274 23.9344 8.86274C23.9344 8.86274 24.4048 8.70333 24.6844 8.81047C24.8125 8.85751 24.8935 8.91239 24.9614 9.11361C24.9876 9.18678 25.0006 9.34096 24.998 9.49253C24.9954 9.60229 24.9823 9.70682 24.9719 9.86623C24.87 11.5074 21.8255 23.7557 21.8255 23.7557C21.8255 23.7557 21.6426 24.4717 20.9919 24.4978C20.7541 24.5057 20.464 24.4586 20.1191 24.1607C18.8386 23.0579 14.4117 20.084 13.4344 19.4307C13.3795 19.3941 13.3638 19.3471 13.3534 19.3001C13.3403 19.2321 13.4135 19.1459 13.4135 19.1459C13.4135 19.1459 21.1199 12.2966 21.3238 11.5779C21.3395 11.523 21.2794 11.4943 21.1983 11.5178C20.6861 11.706 11.8142 17.3088 10.8342 17.9281C10.7819 17.9647 10.6225 17.9412 10.6225 17.9412Z" fill="white"/>
<defs>
<linearGradient id="paint0_linear_1768_25292" x1="16" y1="32" x2="16" y2="0" gradientUnits="userSpaceOnUse">
<stop stop-color="#1D93D2"/>
<stop offset="1" stop-color="#38B0E3"/>
</linearGradient>
</defs>
</svg>
