<svg width="18" height="19" viewBox="0 0 18 19" fill="none" xmlns="http://www.w3.org/2000/svg">
<path d="M15.7316 1.78704C15.2759 1.36694 13.4346 0.0312965 9.33301 0.0131507C9.33301 0.0131507 4.49624 -0.278282 2.13839 1.88272C0.825875 3.19444 0.364155 5.11377 0.315452 7.49334C0.266749 9.87292 0.203737 14.3324 4.50587 15.5416H4.51L4.50725 17.3866C4.50725 17.3866 4.47973 18.1337 4.97199 18.286C5.56744 18.4707 5.91689 17.903 6.48537 17.291C6.79741 16.955 7.22831 16.4615 7.553 16.0843C10.4953 16.3317 12.7582 15.7662 13.0152 15.6826C13.6093 15.4901 16.9709 15.0599 17.5177 10.6007C18.082 6.00456 17.2447 3.09739 15.7316 1.78704ZM16.2302 10.271C15.7687 13.9942 13.0422 14.2282 12.5395 14.3893C12.3257 14.458 10.3382 14.9521 7.83889 14.7891C7.83889 14.7891 5.9766 17.0339 5.39491 17.6176C5.30411 17.7089 5.19735 17.7457 5.12608 17.7276C5.02592 17.7031 4.99841 17.5846 4.99951 17.4114C5.00116 17.164 5.01547 14.3453 5.01547 14.3453C5.01327 14.3453 5.01547 14.3453 5.01547 14.3453C1.3762 13.3357 1.58834 9.54024 1.62962 7.55273C1.67089 5.56521 2.04456 3.93704 3.15456 2.84197C5.14892 1.03701 9.25734 1.30673 9.25734 1.30673C12.7268 1.32185 14.3894 2.36578 14.7749 2.7155C16.0549 3.81057 16.707 6.43099 16.2302 10.2699V10.271Z" fill="white"/>
<path fill-rule="evenodd" clip-rule="evenodd" d="M9.46517 5.96252C9.47189 5.83688 9.58178 5.74034 9.71061 5.7469C10.1926 5.77142 10.5936 5.91371 10.8793 6.20169C11.1638 6.48858 11.3033 6.88936 11.3277 7.37069C11.3341 7.49634 11.2349 7.60326 11.106 7.60949C10.9772 7.61573 10.8675 7.51892 10.8611 7.39326C10.8402 6.98124 10.7243 6.70074 10.5435 6.51843C10.3637 6.33722 10.0895 6.22239 9.68627 6.20187C9.55744 6.19532 9.45845 6.08816 9.46517 5.96252Z" fill="white"/>
<path fill-rule="evenodd" clip-rule="evenodd" d="M9.00063 4.71735C9.01005 4.5885 9.12195 4.49169 9.25057 4.50112C10.2312 4.57302 11.0205 4.90868 11.5954 5.53738L11.5955 5.53747C12.1642 6.15999 12.4345 6.9344 12.4149 7.84274C12.4121 7.97191 12.3053 8.07435 12.1764 8.07156C12.0474 8.06876 11.9452 7.96179 11.9479 7.83262C11.9653 7.03158 11.7301 6.3778 11.251 5.85333C10.7733 5.33104 10.1056 5.03292 9.21648 4.96774C9.08786 4.95831 8.99122 4.84621 9.00063 4.71735Z" fill="white"/>
<path fill-rule="evenodd" clip-rule="evenodd" d="M8.69141 3.49658C8.6923 3.36705 8.79581 3.26278 8.92261 3.26368C10.2551 3.27316 11.3814 3.72629 12.2857 4.6268C13.1975 5.53484 13.6485 6.77105 13.6599 8.3064C13.6609 8.43593 13.5589 8.54173 13.4321 8.54272C13.3053 8.54371 13.2017 8.4395 13.2007 8.30997C13.19 6.87127 12.771 5.76519 11.9651 4.96269C11.1517 4.15267 10.1417 3.74145 8.91941 3.73275C8.79261 3.73185 8.69053 3.62611 8.69141 3.49658Z" fill="white"/>
<path d="M9.69143 10.4932C9.69143 10.4932 10.0153 10.521 10.1896 10.3026L10.5296 9.86772C10.6935 9.65209 11.0892 9.51454 11.4767 9.73406C11.7671 9.90246 12.049 10.0855 12.3214 10.2826C12.5785 10.4749 13.1051 10.9217 13.1068 10.9217C13.3576 11.1371 13.4155 11.4533 13.2448 11.7867C13.2448 11.7887 13.2434 11.792 13.2434 11.7937C13.0553 12.1253 12.8165 12.4243 12.5359 12.6796C12.5326 12.6812 12.5326 12.6829 12.5296 12.6846C12.2859 12.8917 12.0464 13.0094 11.8112 13.0377C11.7766 13.0439 11.7414 13.0461 11.7062 13.0444C11.6025 13.0454 11.4993 13.0293 11.4007 12.9966L11.3931 12.9852C11.0307 12.8813 10.4257 12.6212 9.41816 12.056C8.83511 11.7328 8.28003 11.3599 7.75887 10.9414C7.49765 10.7318 7.24848 10.5071 7.01257 10.2684L6.98743 10.2429L6.96229 10.2173L6.93715 10.1914C6.92868 10.1831 6.92048 10.1745 6.91201 10.1659C6.6773 9.926 6.45632 9.67263 6.25015 9.407C5.83866 8.8771 5.47199 8.31276 5.15407 7.72C4.59824 6.69519 4.34246 6.08053 4.24026 5.71151L4.22905 5.70372C4.19702 5.60343 4.18123 5.4985 4.18232 5.39306C4.18041 5.35736 4.18252 5.32156 4.18861 5.28635C4.21794 5.04775 4.3339 4.80414 4.53648 4.55553C4.53812 4.55248 4.53976 4.55248 4.5414 4.54914C4.79234 4.26385 5.08643 4.02108 5.41258 3.83C5.41422 3.83 5.4175 3.82833 5.41941 3.82833C5.74734 3.65466 6.05832 3.71357 6.26983 3.96727C6.27147 3.96894 6.71006 4.50441 6.89835 4.76589C7.09216 5.04314 7.2722 5.33008 7.43778 5.62564C7.65366 6.01939 7.5184 6.42259 7.30634 6.58876L6.87867 6.93444C6.66279 7.11173 6.69121 7.44102 6.69121 7.44102C6.69121 7.44102 7.32465 9.87884 9.69143 10.4932Z" fill="white"/>
</svg>
