<svg width="32" height="32" viewBox="0 0 32 32" fill="none" xmlns="http://www.w3.org/2000/svg">
<rect width="32" height="32" rx="8" fill="#7360F2"/>
<path d="M22.7316 8.78704C22.2759 8.36694 20.4346 7.0313 16.333 7.01315C16.333 7.01315 11.4962 6.72172 9.13839 8.88272C7.82587 10.1944 7.36416 12.1138 7.31545 14.4933C7.26675 16.8729 7.20374 21.3324 11.5059 22.5416H11.51L11.5072 24.3866C11.5072 24.3866 11.4797 25.1337 11.972 25.286C12.5674 25.4707 12.9169 24.903 13.4854 24.291C13.7974 23.955 14.2283 23.4615 14.553 23.0843C17.4953 23.3317 19.7582 22.7662 20.0152 22.6826C20.6093 22.4901 23.9709 22.0599 24.5177 17.6007C25.082 13.0046 24.2447 10.0974 22.7316 8.78704ZM23.2302 17.271C22.7687 20.9942 20.0422 21.2282 19.5395 21.3893C19.3257 21.458 17.3382 21.9521 14.8389 21.7891C14.8389 21.7891 12.9766 24.0339 12.3949 24.6176C12.3041 24.7089 12.1973 24.7457 12.1261 24.7276C12.0259 24.7031 11.9984 24.5846 11.9995 24.4114C12.0012 24.164 12.0155 21.3453 12.0155 21.3453C12.0155 21.3453 12.0133 21.3453 12.0155 21.3453C8.3762 20.3357 8.58834 16.5402 8.62962 14.5527C8.67089 12.5652 9.04456 10.937 10.1546 9.84197C12.1489 8.03701 16.2573 8.30673 16.2573 8.30673C19.7268 8.32185 21.3894 9.36578 21.7749 9.7155C23.0549 10.8106 23.707 13.431 23.2302 17.2699V17.271Z" fill="white"/>
<path fill-rule="evenodd" clip-rule="evenodd" d="M16.4613 12.9659C16.468 12.8403 16.5779 12.7438 16.7067 12.7503C17.1887 12.7748 17.5897 12.9171 17.8754 13.2051C18.1599 13.492 18.2994 13.8928 18.3238 14.3741C18.3302 14.4998 18.231 14.6067 18.1021 14.6129C17.9733 14.6191 17.8636 14.5223 17.8572 14.3967C17.8363 13.9847 17.7204 13.7042 17.5395 13.5218C17.3598 13.3406 17.0856 13.2258 16.6824 13.2053C16.5535 13.1987 16.4545 13.0916 16.4613 12.9659Z" fill="white"/>
<path fill-rule="evenodd" clip-rule="evenodd" d="M16.0006 11.7169C16.01 11.588 16.1219 11.4912 16.2506 11.5006C17.2312 11.5725 18.0205 11.9082 18.5954 12.5369L18.5955 12.537C19.1642 13.1595 19.4345 13.9339 19.4149 14.8423C19.4121 14.9714 19.3053 15.0739 19.1764 15.0711C19.0474 15.0683 18.9452 14.9613 18.9479 14.8321C18.9653 14.0311 18.7301 13.3773 18.251 12.8528C17.7733 12.3305 17.1056 12.0324 16.2165 11.9672C16.0879 11.9578 15.9912 11.8457 16.0006 11.7169Z" fill="white"/>
<path fill-rule="evenodd" clip-rule="evenodd" d="M15.6953 10.4985C15.6962 10.369 15.7997 10.2647 15.9265 10.2656C17.259 10.2751 18.3853 10.7282 19.2896 11.6288C20.2015 12.5368 20.6524 13.773 20.6638 15.3084C20.6648 15.4379 20.5628 15.5437 20.436 15.5447C20.3092 15.5457 20.2056 15.4415 20.2046 15.3119C20.1939 13.8732 19.7749 12.7671 18.969 11.9646C18.1556 11.1546 17.1456 10.7434 15.9233 10.7347C15.7965 10.7338 15.6944 10.6281 15.6953 10.4985Z" fill="white"/>
<path d="M16.6895 17.4908C16.6895 17.4908 17.0133 17.5186 17.1877 17.3002L17.5276 16.8653C17.6916 16.6496 18.0873 16.5121 18.4747 16.7316C18.7651 16.9 19.047 17.0831 19.3194 17.2801C19.5766 17.4724 20.1032 17.9193 20.1048 17.9193C20.3557 18.1346 20.4136 18.4508 20.2428 18.7843C20.2428 18.7862 20.2414 18.7896 20.2414 18.7912C20.0533 19.1228 19.8145 19.4219 19.5339 19.6771C19.5307 19.6788 19.5307 19.6805 19.5277 19.6821C19.2839 19.8892 19.0444 20.007 18.8092 20.0353C18.7746 20.0415 18.7394 20.0437 18.7043 20.042C18.6006 20.043 18.4974 20.0269 18.3988 19.9942L18.3911 19.9828C18.0288 19.8789 17.4238 19.6188 16.4162 19.0536C15.8332 18.7303 15.2781 18.3575 14.7569 17.939C14.4957 17.7294 14.2465 17.5046 14.0106 17.266L13.9855 17.2404L13.9603 17.2148L13.9352 17.189C13.9267 17.1807 13.9185 17.1721 13.9101 17.1634C13.6753 16.9236 13.4544 16.6702 13.2482 16.4046C12.8367 15.8747 12.47 15.3103 12.1521 14.7176C11.5963 13.6928 11.3405 13.0781 11.2383 12.7091L11.2271 12.7013C11.1951 12.601 11.1793 12.4961 11.1804 12.3906C11.1785 12.3549 11.1806 12.3191 11.1867 12.2839C11.216 12.0453 11.3319 11.8017 11.5345 11.5531C11.5362 11.55 11.5378 11.55 11.5394 11.5467C11.7904 11.2614 12.0845 11.0186 12.4106 10.8276C12.4123 10.8276 12.4155 10.8259 12.4175 10.8259C12.7454 10.6522 13.0564 10.7111 13.2679 10.9648C13.2695 10.9665 13.7081 11.502 13.8964 11.7634C14.0902 12.0407 14.2702 12.3276 14.4358 12.6232C14.6517 13.017 14.5164 13.4202 14.3044 13.5863L13.8767 13.932C13.6608 14.1093 13.6893 14.4386 13.6893 14.4386C13.6893 14.4386 14.3227 16.8764 16.6895 17.4908Z" fill="white"/>
</svg>
