<svg width="18" height="17" viewBox="0 0 18 17" fill="none" xmlns="http://www.w3.org/2000/svg">
<path fill-rule="evenodd" clip-rule="evenodd" d="M15.0212 2.4699C13.424 0.87775 11.297 0 9.0336 0C4.36849 0 0.571163 3.77865 0.569186 8.42325C0.569186 9.90715 0.958605 11.3576 1.69988 12.6349L0.5 17L4.98721 15.829C6.22267 16.5001 7.61628 16.8544 9.03163 16.8544H9.03558C13.7007 16.8544 17.498 13.0757 17.5 8.42915C17.498 6.17967 16.6184 4.06205 15.0212 2.4699ZM9.0336 15.4315H9.03163C7.76849 15.4315 6.53105 15.093 5.45174 14.4553L5.19477 14.3038L2.53209 14.9985L3.24372 12.4144L3.0757 12.1488C2.37198 11.0348 2.00035 9.74577 2.00035 8.42325C2.00035 4.5639 5.15523 1.4229 9.03558 1.4229C10.9155 1.4229 12.6807 2.15304 14.0091 3.47557C15.3374 4.80007 16.0688 6.55754 16.0669 8.42915C16.0669 12.2905 12.912 15.4315 9.0336 15.4315ZM12.8922 10.1866C12.6807 10.0803 11.6409 9.57259 11.4472 9.50174C11.2535 9.43089 11.1131 9.39546 10.9708 9.60801C10.8305 9.81859 10.4252 10.2929 10.3007 10.4326C10.1781 10.5724 10.0536 10.5901 9.84209 10.4858C9.63058 10.3795 8.9486 10.1591 8.14209 9.44073C7.51349 8.8818 7.08849 8.19298 6.96593 7.9824C6.84337 7.77182 6.95209 7.65767 7.05884 7.55337C7.15372 7.4589 7.27035 7.30736 7.37512 7.18534C7.47988 7.06332 7.51546 6.97476 7.58663 6.83503C7.65779 6.6953 7.62221 6.57131 7.56884 6.46701C7.51547 6.36073 7.09244 5.32554 6.91651 4.90438C6.74453 4.49305 6.57058 4.55013 6.44012 4.54225C6.31756 4.53635 6.17523 4.53438 6.03488 4.53438C5.89453 4.53438 5.66523 4.58752 5.47151 4.7981C5.27779 5.00868 4.73221 5.51841 4.73221 6.5536C4.73221 7.58879 5.4893 8.59053 5.59605 8.73026C5.70081 8.86999 7.08651 10.9975 9.20953 11.9087C9.7136 12.1251 10.109 12.255 10.4153 12.3515C10.9214 12.5109 11.384 12.4892 11.7477 12.4341C12.1549 12.3731 12.999 11.9244 13.1749 11.4324C13.3508 10.9404 13.3508 10.5192 13.2974 10.4307C13.246 10.346 13.1037 10.2929 12.8922 10.1866Z" fill="white"/>
</svg>
