<svg width="32" height="32" viewBox="0 0 32 32" fill="none" xmlns="http://www.w3.org/2000/svg">
<rect width="32" height="32" rx="8" fill="url(#paint0_linear_1768_25291)"/>
<path fill-rule="evenodd" clip-rule="evenodd" d="M22.0212 9.4699C20.424 7.87775 18.297 7 16.0336 7C11.3685 7 7.57116 10.7787 7.56919 15.4232C7.56919 16.9072 7.9586 18.3576 8.69988 19.6349L7.5 24L11.9872 22.829C13.2227 23.5001 14.6163 23.8544 16.0316 23.8544H16.0356C20.7007 23.8544 24.498 20.0757 24.5 15.4292C24.498 13.1797 23.6184 11.0621 22.0212 9.4699ZM16.0336 22.4315H16.0316C14.7685 22.4315 13.531 22.093 12.4517 21.4553L12.1948 21.3038L9.53209 21.9985L10.2437 19.4144L10.0757 19.1488C9.37198 18.0348 9.00035 16.7458 9.00035 15.4232C9.00035 11.5639 12.1552 8.4229 16.0356 8.4229C17.9155 8.4229 19.6807 9.15304 21.0091 10.4756C22.3374 11.8001 23.0688 13.5575 23.0669 15.4292C23.0669 19.2905 19.912 22.4315 16.0336 22.4315ZM19.8922 17.1866C19.6807 17.0803 18.6409 16.5726 18.4472 16.5017C18.2535 16.4309 18.1131 16.3955 17.9708 16.608C17.8305 16.8186 17.4252 17.2929 17.3007 17.4326C17.1781 17.5724 17.0536 17.5901 16.8421 17.4858C16.6306 17.3795 15.9486 17.1591 15.1421 16.4407C14.5135 15.8818 14.0885 15.193 13.9659 14.9824C13.8434 14.7718 13.9521 14.6577 14.0588 14.5534C14.1537 14.4589 14.2703 14.3074 14.3751 14.1853C14.4799 14.0633 14.5155 13.9748 14.5866 13.835C14.6578 13.6953 14.6222 13.5713 14.5688 13.467C14.5155 13.3607 14.0924 12.3255 13.9165 11.9044C13.7445 11.4931 13.5706 11.5501 13.4401 11.5423C13.3176 11.5364 13.1752 11.5344 13.0349 11.5344C12.8945 11.5344 12.6652 11.5875 12.4715 11.7981C12.2778 12.0087 11.7322 12.5184 11.7322 13.5536C11.7322 14.5888 12.4893 15.5905 12.596 15.7303C12.7008 15.87 14.0865 17.9975 16.2095 18.9087C16.7136 19.1251 17.109 19.255 17.4153 19.3515C17.9214 19.5109 18.384 19.4892 18.7477 19.4341C19.1549 19.3731 19.999 18.9244 20.1749 18.4324C20.3508 17.9404 20.3508 17.5192 20.2974 17.4307C20.246 17.346 20.1037 17.2929 19.8922 17.1866Z" fill="white"/>
<defs>
<linearGradient id="paint0_linear_1768_25291" x1="16" y1="29.6752" x2="16" y2="-2.32479" gradientUnits="userSpaceOnUse">
<stop stop-color="#78CD51"/>
<stop offset="1" stop-color="#A0FC84"/>
</linearGradient>
</defs>
</svg>
