<svg width="360" height="48" viewBox="0 0 360 48" fill="none" xmlns="http://www.w3.org/2000/svg">
<path d="M385 47L377.282 47C370.806 47 367.568 47 364.65 45.8036C361.733 44.6072 359.427 42.3337 354.815 37.7866L352.93 35.9276C348.318 31.3806 346.012 29.1071 343.095 27.9107C340.177 26.7143 336.939 26.7143 330.463 26.7143L30.694 26.7142C23.6199 26.7142 20.0828 26.7142 16.9563 25.3104C13.8298 23.9066 11.4796 21.2633 6.77925 15.9765L3.01063 11.7377C-1.68975 6.45098 -4.03994 3.8076 -7.16644 2.4038C-10.2929 1 -13.862 1 -21 1V1" stroke="#A5A5A6"/>
</svg>
