<svg width="735" height="292" viewBox="0 0 735 292" fill="none" xmlns="http://www.w3.org/2000/svg">
<g filter="url(#filter0_b_318_1263)">
<path d="M685.799 292H687C709.627 292 720.941 292 727.971 284.97C735 277.941 735 266.627 735 244V72.2264C735 65.6864 735 62.4164 733.782 59.4761C732.564 56.5357 730.252 54.2235 725.627 49.599L686.373 10.3442C681.748 5.71968 679.436 3.40744 676.496 2.18951C673.555 0.97158 670.285 0.97158 663.745 0.971578L32 0.971467C16.9151 0.971464 9.37259 0.971463 4.68629 5.65775C0 10.344 0 17.8865 0 32.9715V219.889C0 226.36 0 229.595 1.19444 232.511C2.38887 235.426 4.65884 237.731 9.19876 242.342L9.19888 242.342L48.6957 282.452C53.3332 287.162 55.652 289.517 58.6172 290.758C61.5824 292 64.8872 292 71.4968 292L376.953 292C383.211 292 386.341 292 389.334 291.215C392.327 290.43 395.054 288.894 400.507 285.823L414.114 278.16C425.622 271.679 431.375 268.438 437.669 268.438C443.962 268.438 449.716 271.679 461.223 278.16L462.244 278.734C473.751 285.215 479.505 288.455 485.798 288.455C492.092 288.455 497.845 285.215 509.353 278.734L510.373 278.16C521.88 271.679 527.634 268.438 533.927 268.438C540.221 268.438 545.975 271.679 557.482 278.16L559.438 279.261C569.632 285.002 574.729 287.873 580.255 288.202C581.421 288.272 582.591 288.256 583.755 288.155C589.271 287.677 594.288 284.67 604.323 278.656L604.324 278.655C614.658 272.462 619.825 269.366 625.492 268.941C626.687 268.851 627.887 268.851 629.082 268.941C634.749 269.366 639.916 272.463 650.251 278.656L661.125 285.172C666.786 288.565 669.617 290.262 672.758 291.131C675.899 292 679.199 292 685.799 292Z" fill="#080A0C"/>
</g>
<defs>
<filter id="filter0_b_318_1263" x="-68" y="-67.0286" width="871" height="427.029" filterUnits="userSpaceOnUse" color-interpolation-filters="sRGB">
<feFlood flood-opacity="0" result="BackgroundImageFix"/>
<feGaussianBlur in="BackgroundImageFix" stdDeviation="34"/>
<feComposite in2="SourceAlpha" operator="in" result="effect1_backgroundBlur_318_1263"/>
<feBlend mode="normal" in="SourceGraphic" in2="effect1_backgroundBlur_318_1263" result="shape"/>
</filter>
</defs>
</svg>
